<mxfile host="Electron" agent="Mozilla/5.0 (Windows NT 10.0; Win64; x64) AppleWebKit/537.36 (KHTML, like Gecko) draw.io/24.7.8 Chrome/128.0.6613.36 Electron/32.0.1 Safari/537.36" version="24.7.8">
  <diagram id="C5RBs43oDa-KdzZeNtuy" name="Page-1">
    <mxGraphModel dx="1687" dy="984" grid="1" gridSize="10" guides="1" tooltips="1" connect="1" arrows="1" fold="1" page="1" pageScale="1" pageWidth="827" pageHeight="1169" math="0" shadow="0">
      <root>
        <mxCell id="WIyWlLk6GJQsqaUBKTNV-0" />
        <mxCell id="WIyWlLk6GJQsqaUBKTNV-1" parent="WIyWlLk6GJQsqaUBKTNV-0" />
        <mxCell id="52s4DpubqpI7_5OBgOki-3" style="edgeStyle=orthogonalEdgeStyle;rounded=0;orthogonalLoop=1;jettySize=auto;html=1;entryX=0.5;entryY=1;entryDx=0;entryDy=0;endArrow=diamondThin;endFill=1;endSize=20;startSize=20;" edge="1" parent="WIyWlLk6GJQsqaUBKTNV-1" source="52s4DpubqpI7_5OBgOki-0" target="52s4DpubqpI7_5OBgOki-2">
          <mxGeometry relative="1" as="geometry" />
        </mxCell>
        <mxCell id="52s4DpubqpI7_5OBgOki-0" value="Game&lt;div&gt;(QWidget)&lt;br&gt;&lt;/div&gt;" style="rounded=0;whiteSpace=wrap;html=1;" vertex="1" parent="WIyWlLk6GJQsqaUBKTNV-1">
          <mxGeometry x="320" y="240" width="120" height="60" as="geometry" />
        </mxCell>
        <mxCell id="52s4DpubqpI7_5OBgOki-2" value="MainWindow&lt;div&gt;(QWidget)&lt;/div&gt;" style="rounded=0;whiteSpace=wrap;html=1;" vertex="1" parent="WIyWlLk6GJQsqaUBKTNV-1">
          <mxGeometry x="320" y="120" width="120" height="60" as="geometry" />
        </mxCell>
        <mxCell id="52s4DpubqpI7_5OBgOki-15" style="edgeStyle=orthogonalEdgeStyle;shape=connector;rounded=0;orthogonalLoop=1;jettySize=auto;html=1;entryX=0.5;entryY=1;entryDx=0;entryDy=0;strokeColor=default;align=center;verticalAlign=middle;fontFamily=Helvetica;fontSize=11;fontColor=default;labelBackgroundColor=default;startSize=20;endArrow=diamondThin;endFill=1;endSize=20;" edge="1" parent="WIyWlLk6GJQsqaUBKTNV-1" source="52s4DpubqpI7_5OBgOki-5" target="52s4DpubqpI7_5OBgOki-0">
          <mxGeometry relative="1" as="geometry">
            <Array as="points">
              <mxPoint x="580" y="360" />
              <mxPoint x="380" y="360" />
            </Array>
          </mxGeometry>
        </mxCell>
        <mxCell id="52s4DpubqpI7_5OBgOki-5" value="GameBoard&lt;div&gt;(&lt;span style=&quot;background-color: rgb(24, 20, 29); font-size: 11px;&quot;&gt;QGrpahicsScene)&lt;/span&gt;&lt;/div&gt;" style="rounded=0;whiteSpace=wrap;html=1;" vertex="1" parent="WIyWlLk6GJQsqaUBKTNV-1">
          <mxGeometry x="520" y="400" width="120" height="60" as="geometry" />
        </mxCell>
        <mxCell id="52s4DpubqpI7_5OBgOki-16" style="edgeStyle=orthogonalEdgeStyle;shape=connector;rounded=0;orthogonalLoop=1;jettySize=auto;html=1;entryX=0.5;entryY=1;entryDx=0;entryDy=0;strokeColor=default;align=center;verticalAlign=middle;fontFamily=Helvetica;fontSize=11;fontColor=default;labelBackgroundColor=default;startSize=20;endArrow=none;endFill=0;endSize=20;" edge="1" parent="WIyWlLk6GJQsqaUBKTNV-1" source="52s4DpubqpI7_5OBgOki-1" target="52s4DpubqpI7_5OBgOki-0">
          <mxGeometry relative="1" as="geometry" />
        </mxCell>
        <mxCell id="52s4DpubqpI7_5OBgOki-55" style="edgeStyle=orthogonalEdgeStyle;shape=connector;rounded=0;orthogonalLoop=1;jettySize=auto;html=1;entryX=1;entryY=0.5;entryDx=0;entryDy=0;strokeColor=default;align=center;verticalAlign=middle;fontFamily=Helvetica;fontSize=11;fontColor=default;labelBackgroundColor=default;startSize=20;endArrow=none;endFill=0;endSize=20;" edge="1" parent="WIyWlLk6GJQsqaUBKTNV-1" source="52s4DpubqpI7_5OBgOki-1" target="52s4DpubqpI7_5OBgOki-6">
          <mxGeometry relative="1" as="geometry" />
        </mxCell>
        <mxCell id="52s4DpubqpI7_5OBgOki-56" style="edgeStyle=orthogonalEdgeStyle;shape=connector;rounded=0;orthogonalLoop=1;jettySize=auto;html=1;entryX=0;entryY=0.5;entryDx=0;entryDy=0;strokeColor=default;align=center;verticalAlign=middle;fontFamily=Helvetica;fontSize=11;fontColor=default;labelBackgroundColor=default;startSize=20;endArrow=none;endFill=0;endSize=20;" edge="1" parent="WIyWlLk6GJQsqaUBKTNV-1" source="52s4DpubqpI7_5OBgOki-1" target="52s4DpubqpI7_5OBgOki-5">
          <mxGeometry relative="1" as="geometry" />
        </mxCell>
        <mxCell id="52s4DpubqpI7_5OBgOki-1" value="GameView&lt;div&gt;(QWidget)&lt;br&gt;&lt;/div&gt;" style="rounded=0;whiteSpace=wrap;html=1;" vertex="1" parent="WIyWlLk6GJQsqaUBKTNV-1">
          <mxGeometry x="320" y="400" width="120" height="60" as="geometry" />
        </mxCell>
        <mxCell id="52s4DpubqpI7_5OBgOki-13" style="edgeStyle=orthogonalEdgeStyle;shape=connector;rounded=0;orthogonalLoop=1;jettySize=auto;html=1;strokeColor=default;align=center;verticalAlign=middle;fontFamily=Helvetica;fontSize=11;fontColor=default;labelBackgroundColor=default;startSize=20;endArrow=diamondThin;endFill=1;endSize=20;entryX=0.5;entryY=1;entryDx=0;entryDy=0;" edge="1" parent="WIyWlLk6GJQsqaUBKTNV-1" source="52s4DpubqpI7_5OBgOki-6" target="52s4DpubqpI7_5OBgOki-0">
          <mxGeometry relative="1" as="geometry">
            <mxPoint x="380" y="330" as="targetPoint" />
            <Array as="points">
              <mxPoint x="180" y="360" />
              <mxPoint x="380" y="360" />
            </Array>
          </mxGeometry>
        </mxCell>
        <mxCell id="52s4DpubqpI7_5OBgOki-6" value="GamePause&lt;div&gt;(QWidget)&lt;br&gt;&lt;/div&gt;" style="rounded=0;whiteSpace=wrap;html=1;" vertex="1" parent="WIyWlLk6GJQsqaUBKTNV-1">
          <mxGeometry x="120" y="400" width="120" height="60" as="geometry" />
        </mxCell>
        <mxCell id="52s4DpubqpI7_5OBgOki-34" style="edgeStyle=orthogonalEdgeStyle;shape=connector;rounded=0;orthogonalLoop=1;jettySize=auto;html=1;strokeColor=default;align=center;verticalAlign=middle;fontFamily=Helvetica;fontSize=11;fontColor=default;labelBackgroundColor=default;startSize=20;endArrow=blockThin;endFill=0;endSize=20;exitX=0.5;exitY=0;exitDx=0;exitDy=0;entryX=0.5;entryY=1.154;entryDx=0;entryDy=0;entryPerimeter=0;" edge="1" parent="WIyWlLk6GJQsqaUBKTNV-1" source="52s4DpubqpI7_5OBgOki-22" target="52s4DpubqpI7_5OBgOki-76">
          <mxGeometry relative="1" as="geometry">
            <mxPoint x="270" y="705" as="targetPoint" />
            <Array as="points">
              <mxPoint x="240" y="755" />
              <mxPoint x="160" y="755" />
            </Array>
          </mxGeometry>
        </mxCell>
        <mxCell id="52s4DpubqpI7_5OBgOki-22" value="Player" style="rounded=0;whiteSpace=wrap;html=1;fontFamily=Helvetica;fontSize=11;fontColor=default;labelBackgroundColor=default;" vertex="1" parent="WIyWlLk6GJQsqaUBKTNV-1">
          <mxGeometry x="180" y="775" width="120" height="60" as="geometry" />
        </mxCell>
        <mxCell id="52s4DpubqpI7_5OBgOki-33" style="edgeStyle=orthogonalEdgeStyle;shape=connector;rounded=0;orthogonalLoop=1;jettySize=auto;html=1;strokeColor=default;align=center;verticalAlign=middle;fontFamily=Helvetica;fontSize=11;fontColor=default;labelBackgroundColor=default;startSize=20;endArrow=blockThin;endFill=0;endSize=20;exitX=0.5;exitY=0;exitDx=0;exitDy=0;entryX=0.506;entryY=1.115;entryDx=0;entryDy=0;entryPerimeter=0;" edge="1" parent="WIyWlLk6GJQsqaUBKTNV-1" source="52s4DpubqpI7_5OBgOki-23" target="52s4DpubqpI7_5OBgOki-76">
          <mxGeometry relative="1" as="geometry">
            <mxPoint x="310" y="725" as="targetPoint" />
            <Array as="points">
              <mxPoint x="80" y="755" />
              <mxPoint x="160" y="755" />
            </Array>
          </mxGeometry>
        </mxCell>
        <mxCell id="52s4DpubqpI7_5OBgOki-23" value="Bot" style="rounded=0;whiteSpace=wrap;html=1;fontFamily=Helvetica;fontSize=11;fontColor=default;labelBackgroundColor=default;" vertex="1" parent="WIyWlLk6GJQsqaUBKTNV-1">
          <mxGeometry x="20" y="775" width="120" height="60" as="geometry" />
        </mxCell>
        <mxCell id="52s4DpubqpI7_5OBgOki-35" style="edgeStyle=orthogonalEdgeStyle;shape=connector;rounded=0;orthogonalLoop=1;jettySize=auto;html=1;entryX=0.5;entryY=1;entryDx=0;entryDy=0;strokeColor=default;align=center;verticalAlign=middle;fontFamily=Helvetica;fontSize=11;fontColor=default;labelBackgroundColor=default;startSize=20;endArrow=diamondThin;endFill=1;endSize=20;exitX=0.5;exitY=0;exitDx=0;exitDy=0;" edge="1" parent="WIyWlLk6GJQsqaUBKTNV-1" source="52s4DpubqpI7_5OBgOki-69" target="52s4DpubqpI7_5OBgOki-5">
          <mxGeometry relative="1" as="geometry">
            <mxPoint x="310" y="560" as="sourcePoint" />
            <Array as="points">
              <mxPoint x="160" y="520" />
              <mxPoint x="580" y="520" />
            </Array>
          </mxGeometry>
        </mxCell>
        <mxCell id="52s4DpubqpI7_5OBgOki-41" style="edgeStyle=orthogonalEdgeStyle;shape=connector;rounded=0;orthogonalLoop=1;jettySize=auto;html=1;entryX=0.5;entryY=1;entryDx=0;entryDy=0;strokeColor=default;align=center;verticalAlign=middle;fontFamily=Helvetica;fontSize=11;fontColor=default;labelBackgroundColor=default;startSize=20;endArrow=diamondThin;endFill=1;endSize=20;" edge="1" parent="WIyWlLk6GJQsqaUBKTNV-1" source="52s4DpubqpI7_5OBgOki-36" target="52s4DpubqpI7_5OBgOki-5">
          <mxGeometry relative="1" as="geometry">
            <Array as="points">
              <mxPoint x="490" y="520" />
              <mxPoint x="580" y="520" />
            </Array>
          </mxGeometry>
        </mxCell>
        <mxCell id="52s4DpubqpI7_5OBgOki-36" value="LayerService&lt;div&gt;(QGraphicsObject)&lt;/div&gt;" style="rounded=0;whiteSpace=wrap;html=1;fontFamily=Helvetica;fontSize=11;fontColor=default;labelBackgroundColor=default;" vertex="1" parent="WIyWlLk6GJQsqaUBKTNV-1">
          <mxGeometry x="430" y="555" width="120" height="60" as="geometry" />
        </mxCell>
        <mxCell id="52s4DpubqpI7_5OBgOki-40" style="edgeStyle=orthogonalEdgeStyle;shape=connector;rounded=0;orthogonalLoop=1;jettySize=auto;html=1;entryX=0.5;entryY=1;entryDx=0;entryDy=0;strokeColor=default;align=center;verticalAlign=middle;fontFamily=Helvetica;fontSize=11;fontColor=default;labelBackgroundColor=default;startSize=20;endArrow=diamondThin;endFill=1;endSize=20;" edge="1" parent="WIyWlLk6GJQsqaUBKTNV-1" source="52s4DpubqpI7_5OBgOki-38" target="52s4DpubqpI7_5OBgOki-0">
          <mxGeometry relative="1" as="geometry">
            <Array as="points">
              <mxPoint x="780" y="360" />
              <mxPoint x="380" y="360" />
            </Array>
          </mxGeometry>
        </mxCell>
        <mxCell id="52s4DpubqpI7_5OBgOki-57" style="edgeStyle=orthogonalEdgeStyle;shape=connector;rounded=0;orthogonalLoop=1;jettySize=auto;html=1;entryX=1;entryY=0.5;entryDx=0;entryDy=0;strokeColor=default;align=center;verticalAlign=middle;fontFamily=Helvetica;fontSize=11;fontColor=default;labelBackgroundColor=default;startSize=20;endArrow=none;endFill=0;endSize=20;" edge="1" parent="WIyWlLk6GJQsqaUBKTNV-1" source="52s4DpubqpI7_5OBgOki-38" target="52s4DpubqpI7_5OBgOki-5">
          <mxGeometry relative="1" as="geometry">
            <Array as="points">
              <mxPoint x="660" y="430" />
              <mxPoint x="660" y="430" />
            </Array>
          </mxGeometry>
        </mxCell>
        <mxCell id="52s4DpubqpI7_5OBgOki-38" value="QTimer" style="rounded=0;whiteSpace=wrap;html=1;fontFamily=Helvetica;fontSize=11;fontColor=default;labelBackgroundColor=default;" vertex="1" parent="WIyWlLk6GJQsqaUBKTNV-1">
          <mxGeometry x="720" y="400" width="120" height="60" as="geometry" />
        </mxCell>
        <mxCell id="52s4DpubqpI7_5OBgOki-59" style="edgeStyle=orthogonalEdgeStyle;shape=connector;rounded=0;orthogonalLoop=1;jettySize=auto;html=1;entryX=0.5;entryY=1;entryDx=0;entryDy=0;strokeColor=default;align=center;verticalAlign=middle;fontFamily=Helvetica;fontSize=11;fontColor=default;labelBackgroundColor=default;startSize=20;endArrow=diamondThin;endFill=1;endSize=20;" edge="1" parent="WIyWlLk6GJQsqaUBKTNV-1" source="52s4DpubqpI7_5OBgOki-58" target="52s4DpubqpI7_5OBgOki-5">
          <mxGeometry relative="1" as="geometry">
            <Array as="points">
              <mxPoint x="1100" y="520" />
              <mxPoint x="580" y="520" />
            </Array>
          </mxGeometry>
        </mxCell>
        <mxCell id="52s4DpubqpI7_5OBgOki-58" value="AffectingStuff&lt;div&gt;(QGraphicsObject)&lt;/div&gt;" style="rounded=0;whiteSpace=wrap;html=1;fontFamily=Helvetica;fontSize=11;fontColor=default;labelBackgroundColor=default;" vertex="1" parent="WIyWlLk6GJQsqaUBKTNV-1">
          <mxGeometry x="1040" y="560" width="120" height="60" as="geometry" />
        </mxCell>
        <mxCell id="52s4DpubqpI7_5OBgOki-90" style="edgeStyle=orthogonalEdgeStyle;shape=connector;rounded=0;orthogonalLoop=1;jettySize=auto;html=1;entryX=0.5;entryY=1;entryDx=0;entryDy=0;strokeColor=default;align=center;verticalAlign=middle;fontFamily=Helvetica;fontSize=11;fontColor=default;labelBackgroundColor=default;startSize=20;endArrow=block;endFill=0;endSize=20;" edge="1" parent="WIyWlLk6GJQsqaUBKTNV-1" source="52s4DpubqpI7_5OBgOki-60" target="52s4DpubqpI7_5OBgOki-58">
          <mxGeometry relative="1" as="geometry">
            <Array as="points">
              <mxPoint x="1100" y="870" />
            </Array>
          </mxGeometry>
        </mxCell>
        <mxCell id="52s4DpubqpI7_5OBgOki-60" value="DiggingSoil" style="rounded=0;whiteSpace=wrap;html=1;fontFamily=Helvetica;fontSize=11;fontColor=default;labelBackgroundColor=default;" vertex="1" parent="WIyWlLk6GJQsqaUBKTNV-1">
          <mxGeometry x="960" y="840" width="120" height="60" as="geometry" />
        </mxCell>
        <mxCell id="52s4DpubqpI7_5OBgOki-91" style="edgeStyle=orthogonalEdgeStyle;shape=connector;rounded=0;orthogonalLoop=1;jettySize=auto;html=1;entryX=0.5;entryY=1;entryDx=0;entryDy=0;strokeColor=default;align=center;verticalAlign=middle;fontFamily=Helvetica;fontSize=11;fontColor=default;labelBackgroundColor=default;startSize=20;endArrow=block;endFill=0;endSize=20;" edge="1" parent="WIyWlLk6GJQsqaUBKTNV-1" source="52s4DpubqpI7_5OBgOki-61" target="52s4DpubqpI7_5OBgOki-58">
          <mxGeometry relative="1" as="geometry">
            <Array as="points">
              <mxPoint x="1100" y="950" />
            </Array>
          </mxGeometry>
        </mxCell>
        <mxCell id="52s4DpubqpI7_5OBgOki-61" value="River" style="rounded=0;whiteSpace=wrap;html=1;fontFamily=Helvetica;fontSize=11;fontColor=default;labelBackgroundColor=default;" vertex="1" parent="WIyWlLk6GJQsqaUBKTNV-1">
          <mxGeometry x="960" y="920" width="120" height="60" as="geometry" />
        </mxCell>
        <mxCell id="52s4DpubqpI7_5OBgOki-88" style="edgeStyle=orthogonalEdgeStyle;shape=connector;rounded=0;orthogonalLoop=1;jettySize=auto;html=1;entryX=0.5;entryY=1;entryDx=0;entryDy=0;strokeColor=default;align=center;verticalAlign=middle;fontFamily=Helvetica;fontSize=11;fontColor=default;labelBackgroundColor=default;startSize=20;endArrow=block;endFill=0;endSize=20;" edge="1" parent="WIyWlLk6GJQsqaUBKTNV-1" source="52s4DpubqpI7_5OBgOki-62" target="52s4DpubqpI7_5OBgOki-58">
          <mxGeometry relative="1" as="geometry">
            <Array as="points">
              <mxPoint x="1100" y="711" />
            </Array>
          </mxGeometry>
        </mxCell>
        <mxCell id="52s4DpubqpI7_5OBgOki-62" value="Walkway" style="rounded=0;whiteSpace=wrap;html=1;fontFamily=Helvetica;fontSize=11;fontColor=default;labelBackgroundColor=default;" vertex="1" parent="WIyWlLk6GJQsqaUBKTNV-1">
          <mxGeometry x="960" y="681" width="120" height="60" as="geometry" />
        </mxCell>
        <mxCell id="52s4DpubqpI7_5OBgOki-89" style="edgeStyle=orthogonalEdgeStyle;shape=connector;rounded=0;orthogonalLoop=1;jettySize=auto;html=1;strokeColor=default;align=center;verticalAlign=middle;fontFamily=Helvetica;fontSize=11;fontColor=default;labelBackgroundColor=default;startSize=20;endArrow=block;endFill=0;endSize=20;entryX=0.5;entryY=1;entryDx=0;entryDy=0;" edge="1" parent="WIyWlLk6GJQsqaUBKTNV-1" source="52s4DpubqpI7_5OBgOki-63" target="52s4DpubqpI7_5OBgOki-58">
          <mxGeometry relative="1" as="geometry">
            <mxPoint x="1130" y="749.9999999999998" as="targetPoint" />
            <Array as="points">
              <mxPoint x="1100" y="790" />
            </Array>
          </mxGeometry>
        </mxCell>
        <mxCell id="52s4DpubqpI7_5OBgOki-63" value="SolidWall" style="rounded=0;whiteSpace=wrap;html=1;fontFamily=Helvetica;fontSize=11;fontColor=default;labelBackgroundColor=default;" vertex="1" parent="WIyWlLk6GJQsqaUBKTNV-1">
          <mxGeometry x="960" y="760" width="120" height="60" as="geometry" />
        </mxCell>
        <mxCell id="52s4DpubqpI7_5OBgOki-82" style="edgeStyle=orthogonalEdgeStyle;shape=connector;rounded=0;orthogonalLoop=1;jettySize=auto;html=1;entryX=0.5;entryY=1;entryDx=0;entryDy=0;strokeColor=default;align=center;verticalAlign=middle;fontFamily=Helvetica;fontSize=11;fontColor=default;labelBackgroundColor=default;startSize=20;endArrow=block;endFill=0;endSize=20;" edge="1" parent="WIyWlLk6GJQsqaUBKTNV-1" source="52s4DpubqpI7_5OBgOki-66" target="52s4DpubqpI7_5OBgOki-36">
          <mxGeometry relative="1" as="geometry">
            <Array as="points">
              <mxPoint x="490" y="870" />
            </Array>
          </mxGeometry>
        </mxCell>
        <mxCell id="52s4DpubqpI7_5OBgOki-66" value="GroundLayer" style="rounded=0;whiteSpace=wrap;html=1;fontFamily=Helvetica;fontSize=11;fontColor=default;labelBackgroundColor=default;" vertex="1" parent="WIyWlLk6GJQsqaUBKTNV-1">
          <mxGeometry x="350" y="840" width="120" height="60" as="geometry" />
        </mxCell>
        <mxCell id="52s4DpubqpI7_5OBgOki-81" style="edgeStyle=orthogonalEdgeStyle;shape=connector;rounded=0;orthogonalLoop=1;jettySize=auto;html=1;entryX=0.5;entryY=1;entryDx=0;entryDy=0;strokeColor=default;align=center;verticalAlign=middle;fontFamily=Helvetica;fontSize=11;fontColor=default;labelBackgroundColor=default;startSize=20;endArrow=block;endFill=0;endSize=20;" edge="1" parent="WIyWlLk6GJQsqaUBKTNV-1" source="52s4DpubqpI7_5OBgOki-67" target="52s4DpubqpI7_5OBgOki-36">
          <mxGeometry relative="1" as="geometry">
            <Array as="points">
              <mxPoint x="490" y="790" />
            </Array>
          </mxGeometry>
        </mxCell>
        <mxCell id="52s4DpubqpI7_5OBgOki-67" value="HeadLevel" style="rounded=0;whiteSpace=wrap;html=1;fontFamily=Helvetica;fontSize=11;fontColor=default;labelBackgroundColor=default;" vertex="1" parent="WIyWlLk6GJQsqaUBKTNV-1">
          <mxGeometry x="350" y="760" width="120" height="60" as="geometry" />
        </mxCell>
        <mxCell id="52s4DpubqpI7_5OBgOki-80" style="edgeStyle=orthogonalEdgeStyle;shape=connector;rounded=0;orthogonalLoop=1;jettySize=auto;html=1;entryX=0.5;entryY=1;entryDx=0;entryDy=0;strokeColor=default;align=center;verticalAlign=middle;fontFamily=Helvetica;fontSize=11;fontColor=default;labelBackgroundColor=default;startSize=20;endArrow=block;endFill=0;endSize=20;" edge="1" parent="WIyWlLk6GJQsqaUBKTNV-1" source="52s4DpubqpI7_5OBgOki-68" target="52s4DpubqpI7_5OBgOki-36">
          <mxGeometry relative="1" as="geometry">
            <Array as="points">
              <mxPoint x="490" y="711" />
            </Array>
          </mxGeometry>
        </mxCell>
        <mxCell id="52s4DpubqpI7_5OBgOki-68" value="Ceiling" style="rounded=0;whiteSpace=wrap;html=1;fontFamily=Helvetica;fontSize=11;fontColor=default;labelBackgroundColor=default;" vertex="1" parent="WIyWlLk6GJQsqaUBKTNV-1">
          <mxGeometry x="350" y="681" width="120" height="60" as="geometry" />
        </mxCell>
        <mxCell id="52s4DpubqpI7_5OBgOki-69" value="Creature&#xa;(QGraphicsObject)&#xa;" style="swimlane;fontStyle=2;align=center;verticalAlign=top;childLayout=stackLayout;horizontal=1;startSize=40;horizontalStack=0;resizeParent=1;resizeLast=0;collapsible=1;marginBottom=0;rounded=0;shadow=0;strokeWidth=1;fontFamily=Helvetica;fontSize=11;fontColor=default;labelBackgroundColor=default;" vertex="1" parent="WIyWlLk6GJQsqaUBKTNV-1">
          <mxGeometry x="80" y="555" width="160" height="126" as="geometry">
            <mxRectangle x="230" y="140" width="160" height="26" as="alternateBounds" />
          </mxGeometry>
        </mxCell>
        <mxCell id="52s4DpubqpI7_5OBgOki-70" value="QGraphicsItemGroup" style="text;align=left;verticalAlign=top;spacingLeft=4;spacingRight=4;overflow=hidden;rotatable=0;points=[[0,0.5],[1,0.5]];portConstraint=eastwest;fontFamily=Helvetica;fontSize=11;fontColor=default;labelBackgroundColor=default;" vertex="1" parent="52s4DpubqpI7_5OBgOki-69">
          <mxGeometry y="40" width="160" height="26" as="geometry" />
        </mxCell>
        <mxCell id="52s4DpubqpI7_5OBgOki-73" value="" style="line;html=1;strokeWidth=1;align=left;verticalAlign=middle;spacingTop=-1;spacingLeft=3;spacingRight=3;rotatable=0;labelPosition=right;points=[];portConstraint=eastwest;fontFamily=Helvetica;fontSize=11;fontColor=default;labelBackgroundColor=default;" vertex="1" parent="52s4DpubqpI7_5OBgOki-69">
          <mxGeometry y="66" width="160" height="8" as="geometry" />
        </mxCell>
        <mxCell id="52s4DpubqpI7_5OBgOki-75" value="Move" style="text;align=left;verticalAlign=top;spacingLeft=4;spacingRight=4;overflow=hidden;rotatable=0;points=[[0,0.5],[1,0.5]];portConstraint=eastwest;fontFamily=Helvetica;fontSize=11;fontColor=default;labelBackgroundColor=default;" vertex="1" parent="52s4DpubqpI7_5OBgOki-69">
          <mxGeometry y="74" width="160" height="26" as="geometry" />
        </mxCell>
        <mxCell id="52s4DpubqpI7_5OBgOki-76" value="Show" style="text;align=left;verticalAlign=top;spacingLeft=4;spacingRight=4;overflow=hidden;rotatable=0;points=[[0,0.5],[1,0.5]];portConstraint=eastwest;fontFamily=Helvetica;fontSize=11;fontColor=default;labelBackgroundColor=default;" vertex="1" parent="52s4DpubqpI7_5OBgOki-69">
          <mxGeometry y="100" width="160" height="26" as="geometry" />
        </mxCell>
        <mxCell id="52s4DpubqpI7_5OBgOki-77" value="Jak wyświetlać" style="text;html=1;align=center;verticalAlign=middle;whiteSpace=wrap;rounded=0;fontFamily=Helvetica;fontSize=11;fontColor=default;labelBackgroundColor=default;" vertex="1" parent="WIyWlLk6GJQsqaUBKTNV-1">
          <mxGeometry x="560" y="585" width="60" height="30" as="geometry" />
        </mxCell>
        <mxCell id="52s4DpubqpI7_5OBgOki-78" value="Jak oddziałuje&amp;nbsp;" style="text;html=1;align=center;verticalAlign=middle;whiteSpace=wrap;rounded=0;fontFamily=Helvetica;fontSize=11;fontColor=default;labelBackgroundColor=default;" vertex="1" parent="WIyWlLk6GJQsqaUBKTNV-1">
          <mxGeometry x="1170" y="590" width="60" height="30" as="geometry" />
        </mxCell>
        <mxCell id="52s4DpubqpI7_5OBgOki-92" value="Map" style="rounded=0;whiteSpace=wrap;html=1;fontFamily=Helvetica;fontSize=11;fontColor=default;labelBackgroundColor=default;" vertex="1" parent="WIyWlLk6GJQsqaUBKTNV-1">
          <mxGeometry x="700" y="560" width="120" height="60" as="geometry" />
        </mxCell>
        <mxCell id="52s4DpubqpI7_5OBgOki-93" value="Łączy wyświetlanie z funkcjami w grze" style="text;html=1;align=center;verticalAlign=middle;whiteSpace=wrap;rounded=0;fontFamily=Helvetica;fontSize=11;fontColor=default;labelBackgroundColor=default;" vertex="1" parent="WIyWlLk6GJQsqaUBKTNV-1">
          <mxGeometry x="700" y="640" width="60" height="30" as="geometry" />
        </mxCell>
      </root>
    </mxGraphModel>
  </diagram>
</mxfile>
